<svg width="24" height="24" viewBox="0 0 24 24" fill="none" xmlns="http://www.w3.org/2000/svg">
<g id="Miro-32" clip-path="url(#clip0_116_149)">
<path id="Vector" d="M0 4C0 1.79086 1.79086 0 4 0H20C22.2091 0 24 1.79086 24 4V20C24 22.2091 22.2091 24 20 24H4C1.79086 24 0 22.2091 0 20V4Z" fill="#FFD02F"/>
<path id="Vector_2" d="M16.3541 3.2H13.7921L16.0666 6.725L11.2581 3.2H8.69611L10.9706 7.819L6.1621 3.2H3.6001L5.8371 9.163L3.6001 20.8H6.1621L10.9706 8.3225L8.69611 20.8H11.2581L16.0666 7.229L13.7921 20.8H16.3541L21.2001 5.8925L16.3541 3.2Z" fill="#050038"/>
</g>
<defs>
<clipPath id="clip0_116_149">
<rect width="24" height="24" fill="white"/>
</clipPath>
</defs>
</svg>
