<svg width="24" height="24" viewBox="0 0 24 24" fill="none" xmlns="http://www.w3.org/2000/svg">
<g id="Notion-32" clip-path="url(#clip0_116_157)">
<path id="Vector" fill-rule="evenodd" clip-rule="evenodd" d="M4.49751 4.27108C5.24014 4.87444 5.51873 4.8284 6.91328 4.73535L20.0602 3.94594C20.3391 3.94594 20.1072 3.66777 20.0142 3.62155L17.8308 2.04309C17.4124 1.71828 16.855 1.34631 15.7867 1.43936L3.05654 2.36786C2.59227 2.41389 2.49954 2.64603 2.68443 2.83209L4.49751 4.27108ZM5.28683 7.33498V21.1679C5.28683 21.9113 5.65833 22.1894 6.49448 22.1434L20.943 21.3074C21.7795 21.2614 21.8727 20.75 21.8727 20.1461V6.40606C21.8727 5.80312 21.6408 5.47798 21.1287 5.52439L6.02988 6.40606C5.47265 6.45289 5.28678 6.73162 5.28678 7.33498H5.28683ZM19.5503 8.077C19.643 8.49519 19.5503 8.91301 19.1314 8.96003L18.4352 9.09874V19.311C17.8308 19.6359 17.2734 19.8216 16.809 19.8216C16.0653 19.8216 15.8791 19.5894 15.3221 18.8935L10.7684 11.7448V18.6613L12.2094 18.9865C12.2094 18.9865 12.2094 19.8216 11.0468 19.8216L7.84192 20.0075C7.74882 19.8216 7.84192 19.3578 8.16702 19.2649L9.00336 19.0331V9.8881L7.84216 9.79505C7.74901 9.37686 7.98096 8.77388 8.63185 8.72709L12.07 8.49533L16.809 15.7371V9.33082L15.6007 9.19216C15.508 8.68092 15.8791 8.3097 16.3437 8.26366L19.5503 8.077ZM1.98769 1.1146L15.2291 0.139454C16.8552 -6.17681e-06 17.2736 0.0934214 18.2956 0.835816L22.5225 3.80666C23.2199 4.31753 23.4524 4.45662 23.4524 5.01352V21.3074C23.4524 22.3285 23.0803 22.9325 21.7798 23.0249L6.40246 23.9534C5.42614 24 4.9615 23.8609 4.4502 23.2106L1.3375 19.172C0.7798 18.4286 0.547852 17.8724 0.547852 17.2218V2.73871C0.547852 1.90363 0.919965 1.20704 1.98769 1.1146V1.1146Z" fill="black"/>
</g>
<defs>
<clipPath id="clip0_116_157">
<rect width="24" height="24" fill="white"/>
</clipPath>
</defs>
</svg>
